<?xml version="1.0" encoding="utf-8"?>
<!DOCTYPE svg PUBLIC "-//W3C//DTD SVG 1.0//EN" "http://www.w3.org/TR/2001/REC-SVG-20010904/DTD/svg10.dtd">
<svg version="1.0" xmlns="http://www.w3.org/2000/svg" width="1110px" height="295px" viewBox="0 0 1110 295" preserveAspectRatio="xMidYMid meet">
 <g fill="#424649">
  <path d="M127 258.1 c-13.2 -4.3 -14 -4.9 -14 -8.9 l0 -3.4 4.3 0.5 c2.3 0.3 8 1.7 12.7 3.2 11.4 3.6 21.2 4.2 32 2 19.6 -3.9 36.2 -15 48.4 -32.4 6.6 -9.4 9.9 -17 12.2 -28.4 l1.7 -8.8 3.6 0.3 3.6 0.3 0.3 5.6 c0.6 11.2 -4.2 25.9 -12.5 38.2 -11.1 16.5 -23.8 26 -43.1 32.1 -7.6 2.4 -9.7 2.6 -24.5 2.5 -14.9 0 -16.9 -0.3 -24.7 -2.8z"/>
  <path d="M100.2 203.3 c-2.8 -6.7 -4.2 -12.1 -4.2 -16.6 0 -3.8 0 -3.8 3.7 -3.5 3.6 0.3 3.7 0.4 5 6.1 0.7 3.1 1.9 7 2.8 8.7 0.8 1.6 1.5 4.5 1.5 6.5 0 3.3 -0.2 3.5 -3.4 3.5 -3.1 0 -3.5 -0.4 -5.4 -4.7z"/>
  <path d="M70.7 176.3 c-0.4 -0.3 -0.7 -2.1 -0.7 -3.9 l0 -3.3 12.6 -0.3 12.7 -0.3 1.4 -5.5 c2.5 -9.9 6.8 -17.6 13.3 -23.9 7.5 -7.3 12.7 -10.3 23.7 -13.8 7.6 -2.3 9.5 -2.5 18.6 -2 6.7 0.4 12.5 1.3 16.7 2.8 9.3 3.2 11 4.5 11 8.5 0 3 -0.3 3.4 -2.7 3.4 -1.4 0 -5.5 -1.1 -9 -2.5 -3.5 -1.4 -9.1 -2.8 -12.6 -3.2 -23 -2.1 -47.3 17 -51.2 40.5 l-0.7 4.2 -16.2 0 c-9 0 -16.6 -0.3 -16.9 -0.7z"/>
  <path d="M199.7 176.3 c-0.4 -0.3 -0.7 -2.1 -0.7 -4 l0 -3.3 12 0 c10.9 0 12 -0.2 12 -1.8 0 -3 -2.9 -13.1 -5 -17.4 -1.1 -2.3 -2 -5.4 -2 -7 0 -2.5 0.3 -2.8 3.4 -2.8 4.1 0 5.3 1.6 9 12 1.8 5 2.9 10.5 3.3 16.3 l0.6 8.7 -16 0 c-8.8 0 -16.3 -0.3 -16.6 -0.7z"/>
  <path d="M95 79 l0 -44 3.3 0 c1.8 0 3.8 0.5 4.5 1.2 1.7 1.7 1.7 83.9 0 85.6 -0.7 0.7 -2.7 1.2 -4.5 1.2 l-3.3 0 0 -44z"/>
 </g>
 <g fill="#1976d2">
  <path d="M113.7 252.4 c-2.2 -0.8 -5.9 -2.8 -8.3 -4.6 -3.7 -2.6 -4.4 -3.7 -4.4 -6.5 0 -3 0.3 -3.3 3 -3.3 1.6 0 5.3 1.5 8.2 3.3 2.9 1.8 6.8 3.9 8.6 4.6 2.3 1 3.2 2 3.2 3.7 0 2.4 0 2.4 -3.6 0.9 -5.4 -2.2 -5.5 -1.7 -0.4 1 l4.5 2.4 -3.5 -0.1 c-1.9 0 -5.2 -0.7 -7.3 -1.4z"/>
  <path d="M483 220.3 c-16.5 -2.8 -30.5 -14.1 -35.4 -28.7 -2.4 -7 -2.2 -19.8 0.3 -27 7 -20.1 27.5 -31.5 51 -28.6 19.8 2.6 35.1 17 38.1 36 3.4 22.3 -11 42.7 -33.7 47.5 -6.5 1.4 -14.9 1.7 -20.3 0.8z m20.7 -19.5 c17.8 -8.3 17 -37.6 -1.2 -45.9 -4.7 -2.2 -13.9 -2.5 -19.9 -0.7 -5.4 1.6 -12.8 9 -14.4 14.4 -2.2 7.5 -1.6 16.5 1.6 22.5 6 11.4 21.1 15.8 33.9 9.7z"/>
  <path d="M575.3 219.6 c-19 -4.4 -32.6 -19.5 -34 -37.8 -1.3 -17.9 7.5 -33.2 24 -41.3 16.8 -8.3 38.2 -6.1 52.1 5.2 14.2 11.6 19.3 31.1 12.7 48.5 -3.9 10.1 -14.5 20 -25.9 23.9 -7.5 2.6 -20.8 3.3 -28.9 1.5z m23.7 -18.6 c8.4 -4.3 12.2 -10.5 12.8 -21 0.5 -9.4 -2.1 -16.3 -7.9 -21.4 -9.2 -7.8 -25.4 -7.5 -34.1 0.6 -8.5 8.1 -10.2 24 -3.5 33.9 6.5 9.7 21.8 13.4 32.7 7.9z"/>
  <path d="M744.5 220.4 c-8.9 -1.4 -21.5 -6.4 -21.5 -8.5 0 -0.6 1.6 -3.9 3.6 -7.5 l3.5 -6.3 3.7 2.4 c4.2 2.7 13.8 5.5 19.2 5.5 5.9 0 13.7 -2.8 15.9 -5.7 2.9 -3.6 2.7 -8.8 -0.3 -11.8 -1.4 -1.3 -5.6 -3.3 -9.7 -4.5 -15.4 -4.5 -19.9 -6.2 -23.7 -9 -11.7 -8.5 -12.1 -24.2 -0.6 -32.1 12 -8.2 32.3 -9.7 48.7 -3.5 7.2 2.7 7.3 3.4 2.8 10.5 l-3.2 4.9 -5.7 -2.6 c-10.2 -4.7 -26 -3.3 -29.2 2.7 -3.1 5.9 1.3 11 12.1 14 17.7 5 21.1 6.4 25.9 10.8 5.5 5 7.6 10.6 6.6 18 -1.9 13.9 -14.6 22.1 -35.6 22.8 -5.2 0.2 -10.8 0.1 -12.5 -0.1z"/>
  <path d="M948 220.4 c-17.8 -3.5 -29.5 -14.2 -32.9 -30.2 -0.6 -3.1 -1.1 -15.2 -1.1 -28.7 l0 -23.5 11 0 11 0 0 23.8 c0 25.9 0.7 30.2 5.6 35.5 4.1 4.5 8.2 6 15.9 6 9.8 0 14.6 -2.8 19.1 -11.3 1.7 -3.1 1.9 -6.4 2.2 -28.7 l0.3 -25.3 11 0 11 0 -0.3 26.3 c-0.3 24.2 -0.5 26.6 -2.6 31.7 -6.2 15.7 -19 23.8 -38.2 24.5 -5.2 0.2 -10.6 0.1 -12 -0.1z"/>
  <path d="M1058 219.6 c-7.2 -2 -13 -5.5 -18.2 -10.8 l-4.8 -4.9 0 7.5 0 7.6 -10.5 0 -10.5 0 0 -56.5 0 -56.5 11 0 11 0 0 22.5 0 22.5 4 -4.4 c10.3 -11.1 31.6 -14.3 46.6 -6.9 21.1 10.3 28.9 39.1 16.7 61.5 -8.1 14.9 -28.3 23.1 -45.3 18.4z m15.8 -18.2 c8.9 -4.4 13.5 -12.5 13.4 -23.5 0 -7.6 -2 -13 -6.5 -17.7 -6.9 -7.2 -16.9 -9.7 -26.8 -6.9 -11.2 3.3 -17.9 12.6 -17.9 24.9 0 7.9 1.4 11.9 6.1 17.3 7.5 8.5 21.3 11.1 31.7 5.9z"/>
  <path d="M349 153.5 l0 -65.8 26.3 0.6 c27.3 0.5 33.1 1.3 42.3 5.8 5 2.3 10.8 7.8 13.1 12.2 1 2 1.8 6.4 2.1 11.8 0.4 7.8 0.2 9.2 -2.3 14.8 -3 6.6 -10.7 14.6 -15.1 15.7 -2.8 0.7 -3.2 2.4 -0.6 2.4 3.2 0 12 4.8 15.9 8.7 6.3 6.3 8.6 12.3 8.6 22.3 0.1 17.9 -8.9 29.6 -26.8 34.8 -3.6 1 -12.9 1.5 -34.2 1.9 l-29.3 0.5 0 -65.7z m54.6 47 c8.5 -2.5 13.4 -9.8 13.4 -19.7 -0.1 -10.8 -6 -17.7 -16.9 -19.8 -3 -0.5 -10.9 -1 -17.7 -1 l-12.4 0 0 21 0 21 14.3 0 c9.7 0 15.9 -0.5 19.3 -1.5z m-5.1 -57.6 c10.8 -3 16.7 -17.4 11.6 -28.5 -1.4 -3.2 -3 -4.7 -6.7 -6.5 -4.3 -2.1 -6.7 -2.4 -19.1 -2.7 l-14.3 -0.4 0 19.6 0 19.6 12.3 0 c6.7 0 14 -0.5 16.2 -1.1z"/>
  <path d="M639 178.5 l0 -40.5 11 0 11 0 0 15 c0 8.3 0.3 15 0.8 15 0.4 0 8.3 -6.8 17.6 -15 l17 -15 12.5 0 12.6 0 -2.5 2.4 c-1.4 1.3 -11 9.9 -21.4 19.2 l-18.9 16.8 4 3.6 c2.3 1.9 12.7 11.4 23.3 21 l19.1 17.5 -12.6 0.3 -12.6 0.3 -18.9 -17.6 c-10.4 -9.6 -19.1 -17.5 -19.4 -17.5 -0.3 0 -0.6 7.9 -0.6 17.5 l0 17.5 -11 0 -11 0 0 -40.5z"/>
  <path d="M808 162.5 l0 -56.5 10 0 10 0 0 22.5 0 22.5 24.5 0 24.5 0 0 -22.5 0 -22.5 10.5 0 10.5 0 0 56.5 0 56.5 -10.5 0 -10.5 0 0 -25.5 0 -25.5 -24.5 0 -24.5 0 0 25.5 0 25.5 -10 0 -10 0 0 -56.5z"/>
  <path d="M104.2 211 c-1.2 -1.6 -2.2 -3.4 -2.2 -4 0 -0.6 -0.7 -1.8 -1.5 -2.6 -0.8 -0.9 -1.5 -2.8 -1.5 -4.4 0 -1.6 -0.5 -3 -1.1 -3.2 -0.6 -0.2 -1.4 -2.7 -1.7 -5.6 -0.4 -4.2 -0.2 -5.2 1.1 -5.2 0.9 0 1.9 1.7 2.7 4.7 1.3 5.6 5.1 14.6 5.7 13.9 0.3 -0.2 -0.3 -1.8 -1.1 -3.5 -0.9 -1.6 -2.2 -5.7 -3 -9.1 -1.2 -5 -1.2 -6 -0.1 -6 0.9 0 1.6 1.8 2.1 4.7 0.4 2.6 1.3 5.3 2 6.1 0.8 0.7 1.4 1.9 1.4 2.7 0 0.7 1.4 2.7 3 4.5 2.1 2.3 3 4.2 3 6.6 0 3.2 -0.2 3.4 -3.3 3.4 -2.5 0 -3.9 -0.7 -5.5 -3z"/>
  <path d="M90.2 174.3 c9.7 -0.3 10.7 -0.5 11.1 -2.3 0.4 -1.6 0.4 -1.6 0.3 0.2 -0.1 2.2 -0.4 2.3 -11.1 2.3 l-11 0.1 10.7 -0.3z"/>
  <path d="M219.4 174.3 l9.8 -0.4 -0.6 -5.9 c-0.8 -7.1 -6 -22.9 -7.1 -21.8 -0.3 0.3 0.2 2.1 1 4.1 1.6 3.9 4.5 16.5 4.5 19.8 0 1.7 -0.8 1.9 -8.6 1.9 l-8.5 0 0.3 -2.7 c0.3 -2.6 0.7 -2.8 5.1 -3.1 l4.9 -0.3 -0.7 -4.2 c-0.4 -2.3 -1.1 -5 -1.6 -5.9 -0.5 -0.9 -0.9 -2.6 -0.9 -3.7 0 -1.2 -0.4 -2.1 -1 -2.1 -0.5 0 -1 -0.7 -1 -1.6 0 -0.8 -0.7 -2.2 -1.5 -3 -0.8 -0.9 -1.5 -2.9 -1.5 -4.5 0 -1.8 -0.5 -2.9 -1.4 -2.9 -0.7 0 -1.6 -1.3 -1.9 -2.9 -0.4 -1.7 -1.4 -3 -2.6 -3.4 -1.6 -0.4 -2.1 -1.3 -2.1 -4.1 0 -3.5 0.1 -3.6 3.7 -3.6 3 0 4.3 0.7 7 3.7 1.8 2.1 3.3 4.4 3.3 5.1 0 0.8 0.9 2.1 2 3 3.9 3.4 10 24.1 10 34.3 l0 4.9 -10.2 -0.2 -10.3 -0.2 9.9 -0.3z"/>
  <path d="M79.2 169.3 c0.3 -2.7 0.5 -2.8 6.9 -3.1 l6.6 -0.3 1.2 -5.2 c3.3 -15 13.5 -27.3 28.6 -34.8 l8.8 -4.4 16.6 0 16.6 0 7 3.4 c3.9 1.8 8 4.3 9.2 5.5 1.2 1.1 3.2 2.9 4.3 3.9 1.3 1.1 2 2.9 2 5.2 0 3.2 -0.2 3.5 -3 3.5 -2 0 -4.9 -1.5 -8.7 -4.4 -5.2 -3.9 -13.5 -7.4 -21.3 -9 -1.4 -0.3 0.5 -0.3 4.3 -0.1 4 0.3 9.2 1.4 13 2.9 4.7 1.9 5.6 2.1 3.8 0.7 -3.6 -2.8 -15.5 -6.2 -23.4 -6.8 -5.9 -0.4 -8.6 0 -15.3 2.1 -10.9 3.5 -16 6.5 -23.4 13.7 -6.5 6.3 -10.8 14 -13.3 23.9 l-1.4 5.5 -9.7 0.3 -9.7 0.3 0.3 -2.8z"/>
  <path d="M102.1 167.8 c-0.2 -3 3.9 -12 7.7 -17.4 6.6 -9.3 20.3 -18.6 29.2 -19.9 2.6 -0.4 2 0.1 -2.5 1.7 -9.5 3.6 -13.6 6.2 -20.2 12.6 -6.2 6.1 -9.2 10.7 -12.4 19.7 -1 2.7 -1.8 4.2 -1.8 3.3z"/>
 </g>
 <g fill="#0e7fe7">
  <path d="M106 246 c0 -1.6 -0.7 -2 -3.5 -2 -2.4 0 -3.5 -0.5 -3.5 -1.5 0 -0.8 -0.7 -1.5 -1.5 -1.5 -1 0 -1.5 -1.1 -1.5 -3.5 0 -3.3 0.2 -3.5 3.5 -3.5 2.4 0 3.5 0.5 3.5 1.5 0 0.8 0.9 1.5 2 1.5 1.3 0 2 0.7 2 2 0 1.6 0.7 2 3 2 2.5 0 3 0.4 3 2.5 0 2.9 -0.7 3.1 -4 0.9 -1.8 -1.1 -1.6 -0.8 0.5 1 l3 2.6 -3.2 0 c-2.6 0 -3.3 -0.4 -3.3 -2z"/>
  <path d="M108.2 216.8 c-0.7 -0.7 -1.2 -2 -1.2 -3 0 -1 -0.7 -1.8 -1.5 -1.8 -0.9 0 -1.5 -0.9 -1.5 -2.5 0 -1.6 -0.6 -2.5 -1.5 -2.5 -1 0 -1.5 -1 -1.5 -3 0 -2 -0.5 -3 -1.5 -3 -1.1 0 -1.5 -1.1 -1.5 -4 0 -4.6 1.6 -5.2 3.1 -1.2 2.3 5.6 5 11.2 5.9 11.7 0.4 0.3 -0.2 -1.7 -1.5 -4.4 -3.5 -7.1 -4.1 -10.1 -2.1 -10.1 1.2 0 1.6 1 1.6 3.5 0 2.4 0.5 3.5 1.5 3.5 0.9 0 1.5 0.9 1.5 2.5 0 1.6 0.6 2.5 1.5 2.5 0.8 0 1.5 0.8 1.5 1.8 0 0.9 1 2.2 2.3 2.7 1.6 0.7 2.3 2 2.5 4.8 0.3 3.6 0.2 3.7 -3 3.7 -1.9 0 -3.9 -0.5 -4.6 -1.2z"/>
  <path d="M95 185.5 c0 -3.3 0.2 -3.5 3.5 -3.5 3.4 0 3.5 0.1 3.5 3.7 0 3.5 -0.1 3.6 -1.5 1.7 -1.3 -1.7 -1.4 -1.7 -1.5 -0.1 0 1 -0.8 1.7 -2 1.7 -1.6 0 -2 -0.7 -2 -3.5z"/>
  <path d="M69.2 120.8 l0.3 -54.3 2.7 -5.5 c1.7 -3.3 6.7 -9.6 12.5 -15.8 8.5 -8.9 10.2 -10.2 13.1 -10.2 2.8 0 3.2 0.3 3.2 2.6 0 2.2 -0.2 2.5 -1.5 1.4 -1.3 -1.1 -1.5 3.5 -1.5 40 0 36.5 0.2 41.1 1.5 40 0.8 -0.7 1.5 -2.5 1.5 -4.1 0 -1.9 0.9 -3.4 2.9 -4.8 1.6 -1.2 3.3 -2.1 3.9 -2.1 0.5 0 1.5 -0.7 2.2 -1.5 0.7 -0.8 2 -1.5 3 -1.5 0.9 0 3.1 -0.7 4.9 -1.6 11.1 -5.5 36.9 -7.2 52.7 -3.4 15.8 3.7 28.2 10.5 37.4 20.4 1.7 1.7 3 3.7 3 4.4 0 0.6 0.6 1.2 1.3 1.2 0.8 0 1.9 1.2 2.6 2.7 0.7 1.5 2.1 3.3 3.2 4.1 1.1 0.8 1.9 2.5 1.9 4.3 0 1.6 0.4 2.9 1 2.9 1.1 0 4 6.4 4 9 0 1 0.5 2 1 2.2 1.2 0.4 3.4 13.2 2.7 15.1 -0.3 0.6 -0.6 0 -0.6 -1.5 -0.2 -5.3 -8.3 -24.6 -11.1 -26.3 -0.5 -0.3 -1.1 -0.1 -1.4 0.4 -1 1.5 0.4 3.9 2.7 4.6 1.4 0.4 1.7 0.8 1 1.2 -1.7 0.6 -1.6 2.3 0.1 2.3 1.7 0 2.9 2.7 1.5 3.2 -1.4 0.5 0 3.8 1.6 3.8 0.7 0 1.5 0.9 1.8 1.9 0.3 1.4 0.1 1.8 -0.9 1.4 -0.8 -0.3 -1.4 0 -1.4 0.6 0 0.6 0.7 1.1 1.5 1.1 0.8 0 1.5 0.5 1.5 1 0 0.6 -0.4 1 -1 1 -0.5 0 -1 0.7 -1 1.5 0 0.8 0.7 1.5 1.5 1.5 0.8 0 1.5 0.5 1.5 1 0 0.6 -0.4 1 -1 1 -0.5 0 -1 0.7 -1 1.5 0 1.1 -1.2 1.5 -5 1.5 -3.6 0 -5.2 0.4 -5.6 1.5 -0.5 1.1 -2.2 1.5 -6.2 1.5 -7.7 0 -5.5 1.8 2.8 2.3 5.7 0.3 5.4 0.3 -2.5 0.5 l-9.1 0.2 -1.8 -7.2 c-2.3 -9 -6.5 -16 -14.1 -23.7 -9 -9.1 -9.8 -9.7 -12.9 -10.5 -1.5 -0.4 -3.6 -1.4 -4.4 -2.3 -1.5 -1.4 -1.4 -1.5 0.8 -0.8 5 1.4 13.6 5.7 15.9 7.8 l2.4 2.2 -1.2 -2.2 c-0.6 -1.3 -1.6 -2.3 -2.1 -2.3 -0.5 0 -2.3 -1.4 -4 -3 -1.7 -1.7 -3.5 -2.8 -4.1 -2.5 -0.5 0.4 -0.9 0.1 -0.9 -0.5 0 -0.7 -0.6 -1 -1.2 -0.8 -0.7 0.3 -2.1 -0.3 -3.1 -1.3 -1.1 -1 -4.2 -2.3 -6.9 -3 -4.1 -0.9 -5.2 -0.9 -5.9 0.2 -0.8 1.2 -1 1.2 -1.8 0.1 -0.6 -1.1 -3 -1.3 -10 -0.9 -8.3 0.4 -9.9 0.8 -17.8 4.7 -14.9 7.4 -25.1 19.8 -28.4 34.7 l-1.2 5.3 -6.4 0 c-4.7 0 -6.5 0.4 -6.9 1.5 -0.4 1 -2 1.5 -5.2 1.5 -6.4 0 -4.2 1.8 2.8 2.3 4.3 0.3 3.8 0.4 -2.8 0.5 l-8.3 0.2 0.3 -54.2z"/>
 </g>
 <g fill="#54a6fc">
  <path d="M128.9 257 c-7.3 -1.8 -20.4 -7.4 -21.5 -9.1 -0.3 -0.5 -1.3 -0.9 -2.2 -0.9 -1 0 -2.3 -0.9 -3 -2 -0.7 -1.1 -1.7 -2 -2.3 -2 -1.8 0 -11.8 -10.1 -16.6 -16.9 -2.6 -3.5 -5.8 -8.9 -7.3 -12 -3 -6.2 -7.3 -24.4 -6.8 -28.8 l0.3 -2.8 15.9 0 15.8 0 1.8 6.5 c4.4 17 14.9 28 33.6 34.9 6.5 2.5 16.6 2.9 23.5 1.1 6.7 -1.8 17.8 -8 22.4 -12.5 7.2 -6.9 11.7 -15.1 14.5 -26.2 l1.1 -4.3 15.9 0 16 0 -0.1 5.3 c-0.1 3.3 -0.4 4.1 -0.6 2.2 -0.9 -5.8 -2 -4.5 -3.7 4.2 -2.3 11.4 -5.6 19 -12.2 28.4 -11.8 16.8 -27.8 27.9 -46.3 32 -20 4.4 -40 1.1 -57.6 -9.5 l-3 -1.8 2.5 2.2 c3.4 3 12.1 7.3 20.5 10.1 5.2 1.7 10.4 2.4 20.5 2.9 l13.5 0.6 -13.5 0.1 c-10.1 0.1 -15.4 -0.3 -21.1 -1.7z m-20.7 -48.7 c-2.7 -4 -6 -12.4 -6.8 -17.1 -0.4 -2.3 -1.3 -4.7 -2 -5.3 -1.1 -0.9 -1.4 -0.9 -1 0.2 0.2 0.8 1 3.7 1.7 6.4 1.7 6.9 7.7 18.5 9.5 18.5 0.3 0 -0.3 -1.2 -1.4 -2.7z"/>
  <path d="M176 254.6 c17.1 -6.1 29.4 -15.5 39.2 -29.6 5.8 -8.3 7.6 -11.9 10.5 -20.5 1.7 -5 2.2 -5.8 1.7 -3 -2.2 14.5 -18 35.8 -33.7 45.8 -6.5 4.1 -16.1 8.3 -20.7 9.1 -2.1 0.4 -1 -0.3 3 -1.8z"/>
  <path d="M126 102 c0 -1.6 0.7 -2 3.5 -2 4 0 4.9 2.4 1.3 3.4 -3.8 1 -4.8 0.7 -4.8 -1.4z"/>
 </g>
 <g fill="#e6f1f8">
  <path d="M140.9 292.6 c-0.2 -0.2 -4.2 -0.6 -8.8 -1 -4.6 -0.3 -8.7 -0.8 -9.1 -1.1 -0.4 -0.3 -2.5 -0.7 -4.6 -1 -2.2 -0.4 -4.8 -0.9 -5.9 -1.2 -1.1 -0.4 -2.4 -0.8 -3 -0.9 -26.5 -6.7 -59.3 -27.9 -74.1 -47.8 -1.6 -2.2 -4 -5.1 -5.3 -6.5 -2 -2.3 -4.1 -5.5 -7.6 -12.2 -0.5 -1.1 -1.3 -1.9 -1.7 -1.9 -1 0 -6.3 -11.8 -11.1 -24.6 -8.1 -21.7 -9.9 -54.9 -4.2 -78.9 1.4 -6 2.9 -11.7 3.2 -12.5 0.3 -0.8 0.7 -2.1 0.9 -2.8 1.8 -8.8 16.2 -35.8 22.9 -42.8 0.5 -0.6 2.1 -2.6 3.5 -4.4 5 -6.8 13.5 -15.2 17 -17 2 -1 4.2 -2.6 5 -3.5 4.1 -5 31.5 -20.1 42.5 -23.5 2.2 -0.7 4.9 -1.6 6 -2.1 14.2 -5.7 52.3 -7.6 68.7 -3.4 17.8 4.6 33.2 10 38.8 13.5 0.8 0.6 2.2 1.3 3 1.7 3.1 1.4 17.6 11.3 20.9 14.2 1.9 1.7 4 3.1 4.7 3.1 1.6 0 17 16.3 21.7 23.1 7.2 10.3 10.5 15.6 14.1 22.6 6.7 13.5 13 35.8 14.5 51.8 1.3 13 0.2 34.5 -2 40.3 -0.5 1.2 -0.7 2.2 -0.4 2.2 0.2 0 -0.3 2.4 -1.1 5.3 -4.3 15.1 -5.8 19.6 -7.9 24.2 -1.3 2.8 -3.1 6.9 -4 9.3 -1 2.3 -2.1 4.2 -2.5 4.2 -0.5 0 -2.1 2.1 -3.6 4.8 -5.1 8.7 -10.7 15.6 -20.8 25.6 -12.3 12 -11.3 11.2 -21.3 18 -8.8 5.9 -18.1 10.9 -28 14.9 -6.8 2.8 -27.2 8.2 -34.3 9.1 -5.8 0.8 -25.6 1.7 -26.1 1.2z m32.3 -37.2 c19.3 -6.1 32 -15.6 43.1 -32.1 6.2 -9.2 9.2 -16.3 11.5 -27.3 2.3 -11.3 2.7 -11 -13.2 -11 l-13.5 0 -1.1 4.3 c-4.3 16.9 -12.6 27.5 -27.2 34.7 -18 8.8 -36.3 7.3 -53.5 -4.3 -8.3 -5.5 -15.1 -16 -17.5 -27.1 -0.6 -2.8 -1.6 -5.7 -2.1 -6.3 -1.1 -1.5 -26.2 -1.9 -27.1 -0.5 -0.8 1.3 3.2 18.3 5.6 23.7 3.4 7.6 11.9 19.3 18.9 26.1 10.7 10.1 18.8 15 32.9 19.5 7.4 2.4 10.1 2.8 21.7 2.8 11.6 0.1 14.2 -0.2 21.5 -2.5z m-71.7 -85.6 c3 -18.1 18.5 -34.4 37 -39.3 7.5 -1.9 19.4 -1.9 26.8 0 17.1 4.4 29.7 17 34.2 34 1 3.9 2.3 7.6 2.8 8.3 0.7 0.8 4.7 1.2 14 1.2 l13 0 -0.7 -6.1 c-1.5 -12.7 -8.9 -28.1 -19.6 -40.3 -11.7 -13.3 -23.6 -20.4 -41.4 -24.6 -14.5 -3.5 -35.1 -2.1 -46 3.1 -2.2 1.1 -4.7 1.9 -5.7 1.9 -0.9 0 -2.2 0.7 -2.9 1.5 -0.7 0.8 -1.8 1.5 -2.4 1.5 -0.6 0 -2.9 1.4 -5.1 3.1 l-4 3 -0.3 -38.4 c-0.2 -33.8 -0.4 -38.6 -1.8 -39.8 -1.4 -1.1 -2.9 0 -11.5 9.1 -6 6.3 -11 12.7 -12.7 16 l-2.7 5.5 -0.3 50.9 c-0.2 37.4 0 51.2 0.9 52.2 0.9 1.1 4.3 1.4 14.4 1.4 l13.3 0 0.7 -4.2z"/>
 </g>
</svg>